<svg xmlns="http://www.w3.org/2000/svg" viewBox="0 0 900 600"><rect width="900" height="600" fill="#e8f4f1"/><g transform="translate(450 300) rotate(-15)"><path d="M-330-70C-250-155 100-170 300-95c70 26 73 103 15 134C112 123-229 116-340 48c-41-25-28-85 10-118Z" fill="#263d35"/><path d="M-278-54C-145-112 134-111 262-57M-275 12C-116 58 125 57 279 1M-161-97v188M-24-115v221M113-113V90M245-83V55" fill="none" stroke="#6ee7b7" stroke-width="13" stroke-linecap="round" opacity=".8"/></g><text x="55" y="80" fill="#0f766e" font-family="Arial,sans-serif" font-size="26" font-weight="700">TRAIL RUBBER OUTSOLE</text></svg>
